<?xml version="1.0" encoding="UTF-8"?>
<svg xmlns="http://www.w3.org/2000/svg" version="1.1" viewBox="0 0 306 344.4">
  <defs>
    <style>
      .cls-1 {
        fill: none;
      }

      .cls-2 {
        fill: #a00;
      }

      .cls-3 {
        fill: #d80000;
      }

      .cls-4 {
        fill: #fff;
      }

      .cls-5 {
        opacity: .5;
      }

      .cls-6 {
        fill: red;
      }
    </style>
  </defs>
  <!-- Generator: Adobe Illustrator 28.6.0, SVG Export Plug-In . SVG Version: 1.2.0 Build 709)  -->
  <g>
    <g id="Layer_1">
      <path class="cls-3" d="M302.1,258.3c2.4-4.2,3.9-8.8,3.9-13.1V99.1c0-4.2-1.5-8.9-3.9-13.1l-149.1,86.1,149.1,86.1h0Z"/>
      <path class="cls-2" d="M166.2,341.2l126.5-73c3.6-2.1,7-5.7,9.4-9.9l-149.1-86.1L3.9,258.3c2.4,4.2,5.7,7.8,9.4,9.9l126.5,73c7.3,4.2,19.2,4.2,26.5,0h-.1Z"/>
      <path class="cls-6" d="M302.1,86.1c-2.4-4.2-5.7-7.8-9.4-9.9L166.2,3.2c-7.3-4.2-19.2-4.2-26.5,0L13.2,76.2c-7.3,4.2-13.2,14.5-13.2,22.9v146.1c0,4.2,1.5,8.9,3.9,13.1l149.1-86.1,149.1-86.1h0Z"/>
      <path class="cls-5" d="M302.1,86.3h0c-2.4-4.1-5.7-7.7-9.4-9.8L166.2,3.5c-7.3-4.2-19.2-4.2-26.5,0L13.2,76.5c-7.3,4.2-13.2,14.5-13.2,22.9v146.1c0,4.2,1.5,8.9,3.9,13.1,2.4,4.2,5.7,7.8,9.4,9.9l126.5,73c7.3,4.2,19.2,4.2,26.5,0h0l126.5-73c3.6-2.1,7-5.7,9.4-9.9l-149.1-86.1h0c0,0,149,86,149,86h0c2.4-4.1,3.9-8.7,3.9-13V99.4c0-4.2-1.5-8.9-3.9-13.1Z"/>
      <g id="P">
        <path class="cls-4" d="M153,274.2c-56.2,0-102-45.8-102-102s45.8-102,102-102,70.1,19.5,88.3,51l-44.1,25.5c-9.1-15.7-26-25.5-44.2-25.5-28.1,0-51,22.9-51,51s22.9,51,51,51,35.1-9.8,44.2-25.5l44.1,25.5c-18.2,31.4-52,51-88.3,51h0Z"/>
        <polygon class="cls-4" points="102 319.4 102 172.2 51 172.2 51 290 102 319.4"/>
      </g>
      <g id="_x2B_">
        <line class="cls-1" x1="221" y1="166.5" x2="221" y2="177.8"/>
      </g>
    </g>
  </g>
</svg>